<svg width="20" height="20" viewBox="0 0 20 20" fill="none" xmlns="http://www.w3.org/2000/svg">
<path d="M9.98447 6.7618C8.19413 6.7618 6.73309 8.22285 6.73309 10.0132C6.73309 11.8035 8.19413 13.2646 9.98447 13.2646C11.7748 13.2646 13.2359 11.8035 13.2359 10.0132C13.2359 8.22285 11.7748 6.7618 9.98447 6.7618ZM19.7362 10.0132C19.7362 8.66677 19.7484 7.33256 19.6728 5.98859C19.5972 4.42753 19.241 3.0421 18.0995 1.90058C16.9556 0.756617 15.5726 0.40294 14.0115 0.327327C12.6651 0.251713 11.3309 0.263909 9.98691 0.263909C8.6405 0.263909 7.30628 0.251713 5.96231 0.327327C4.40126 0.40294 3.01582 0.759056 1.8743 1.90058C0.730341 3.04454 0.376665 4.42753 0.301051 5.98859C0.225438 7.335 0.237633 8.66921 0.237633 10.0132C0.237633 11.3572 0.225438 12.6938 0.301051 14.0378C0.376665 15.5988 0.732781 16.9843 1.8743 18.1258C3.01826 19.2697 4.40126 19.6234 5.96231 19.699C7.30872 19.7747 8.64294 19.7625 9.98691 19.7625C11.3333 19.7625 12.6675 19.7747 14.0115 19.699C15.5726 19.6234 16.958 19.2673 18.0995 18.1258C19.2435 16.9818 19.5972 15.5988 19.6728 14.0378C19.7508 12.6938 19.7362 11.3596 19.7362 10.0132ZM9.98447 15.0159C7.21604 15.0159 4.98178 12.7816 4.98178 10.0132C4.98178 7.24475 7.21604 5.01049 9.98447 5.01049C12.7529 5.01049 14.9872 7.24475 14.9872 10.0132C14.9872 12.7816 12.7529 15.0159 9.98447 15.0159ZM15.1921 5.97395C14.5457 5.97395 14.0237 5.45198 14.0237 4.8056C14.0237 4.15923 14.5457 3.63725 15.1921 3.63725C15.8384 3.63725 16.3604 4.15923 16.3604 4.8056C16.3606 4.95909 16.3305 5.1111 16.2719 5.25294C16.2132 5.39478 16.1272 5.52365 16.0186 5.63218C15.9101 5.74071 15.7812 5.82676 15.6394 5.88541C15.4976 5.94406 15.3455 5.97415 15.1921 5.97395Z" fill="#363853"/>
</svg>
