<svg width="17" height="21" viewBox="0 0 17 21" fill="none" xmlns="http://www.w3.org/2000/svg">
<path d="M0.289593 7.59959C0.289593 6.71215 0.444723 5.87375 0.750422 5.09126C1.04249 4.33123 1.47643 3.63368 2.02911 3.03577C2.58066 2.44572 3.21183 1.93549 3.90437 1.51983C4.61491 1.08997 5.38415 0.765672 6.18798 0.557104C7.00152 0.343482 7.83923 0.235749 8.68034 0.236577C9.97956 0.236577 11.1887 0.511478 12.3099 1.059C13.4166 1.59653 14.3585 2.42146 15.0373 3.44756C15.7377 4.49127 16.0856 5.67186 16.0856 6.98819C16.0856 7.77753 16.008 8.54976 15.8494 9.30488C15.6938 10.0596 15.4463 10.7924 15.1126 11.487C14.7945 12.1594 14.3786 12.7809 13.8784 13.3314C13.3756 13.8732 12.7668 14.3057 12.0898 14.6021C11.3548 14.9243 10.5596 15.0864 9.75713 15.0778C9.19935 15.0778 8.6427 14.9466 8.0929 14.6831C7.5431 14.4208 7.14843 14.0603 6.91117 13.5984C6.8279 13.9189 6.71383 14.382 6.56212 14.9877C6.41612 15.5922 6.31802 15.9824 6.27467 16.1592C6.22905 16.3348 6.14464 16.628 6.02145 17.034C5.9379 17.3344 5.83072 17.6277 5.70092 17.9112L5.30853 18.68C5.13883 19.0099 4.94913 19.3292 4.74048 19.6359C4.53402 19.9348 4.27851 20.2918 3.97395 20.7024L3.80399 20.7629L3.69106 20.6397C3.56901 19.3473 3.50627 18.5739 3.50627 18.3184C3.50627 17.5622 3.59639 16.7135 3.77433 15.7713C3.94885 14.8303 4.2249 13.6474 4.59561 12.225C4.96633 10.8037 5.17849 9.96761 5.23553 9.72009C4.97431 9.18739 4.842 8.49159 4.842 7.63609C4.842 6.95283 5.0553 6.31291 5.48305 5.71064C5.91194 5.11065 6.45376 4.81065 7.11078 4.81065C7.61382 4.81065 8.00393 4.97719 8.28339 5.31141C8.56399 5.64448 8.70087 6.06425 8.70087 6.57641C8.70087 7.11936 8.52065 7.90528 8.15792 8.93303C7.79518 9.96191 7.61496 10.7296 7.61496 11.2395C7.61496 11.7562 7.79975 12.1885 8.16932 12.5273C8.53405 12.8662 9.01637 13.0499 9.51417 13.0394C9.96587 13.0394 10.3845 12.9368 10.7735 12.7303C11.1564 12.5299 11.4878 12.2438 11.7419 11.8942C12.2954 11.1349 12.6899 10.2716 12.902 9.35621C13.0115 8.87485 13.0959 8.41744 13.1483 7.98741C13.2042 7.5551 13.2282 7.14674 13.2282 6.75891C13.2282 5.3365 12.7765 4.22777 11.8788 3.43387C10.9765 2.63996 9.80162 2.24529 8.35639 2.24529C6.71269 2.24529 5.33819 2.77684 4.23744 3.84337C3.13556 4.90647 2.58119 6.25816 2.58119 7.8973C2.58119 8.25889 2.63595 8.60793 2.73975 8.94557C2.84127 9.28207 2.95191 9.55013 3.07168 9.7486C3.19031 9.94366 3.3021 10.1341 3.40361 10.3098C3.50628 10.4855 3.55989 10.6109 3.55989 10.6862C3.55989 10.9166 3.49943 11.2166 3.37738 11.5874C3.25077 11.9581 3.10134 12.1429 2.92111 12.1429C2.904 12.1429 2.83328 12.1303 2.71009 12.1041C2.28344 11.9767 1.89813 11.7386 1.59338 11.414C1.26993 11.0775 1.01466 10.6817 0.841676 10.2482C0.669181 9.8163 0.534831 9.37012 0.440161 8.91477C0.337879 8.48392 0.287333 8.04241 0.289593 7.59959Z" fill="#363853"/>
</svg>
