<svg width="21" height="17" viewBox="0 0 21 17" fill="none" xmlns="http://www.w3.org/2000/svg">
<path d="M20.7632 2.27041C20.0084 2.59603 19.1869 2.83037 18.3408 2.92165C19.2193 2.39976 19.8771 1.57526 20.1909 0.602846C19.3666 1.09322 18.4635 1.43708 17.5218 1.61917C17.1282 1.1984 16.6522 0.863192 16.1234 0.634439C15.5946 0.405686 15.0244 0.288288 14.4482 0.289561C12.1171 0.289561 10.2423 2.17914 10.2423 4.49794C10.2423 4.82356 10.2818 5.14917 10.3459 5.46246C6.85536 5.27992 3.74224 3.61235 1.67259 1.05921C1.29548 1.70333 1.09786 2.43674 1.10029 3.18313C1.10029 4.64348 1.8428 5.93115 2.97507 6.68846C2.3078 6.66218 1.65617 6.47878 1.07316 6.15317V6.20497C1.07316 8.24995 2.51871 9.94465 4.44528 10.3344C4.08355 10.4284 3.71143 10.4764 3.33769 10.4775C3.06387 10.4775 2.80486 10.4503 2.54337 10.4133C3.0762 12.0809 4.62783 13.2921 6.47547 13.3316C5.02992 14.4638 3.21928 15.1299 1.25323 15.1299C0.90048 15.1299 0.574861 15.1175 0.236908 15.0781C2.10182 16.2745 4.31454 16.9652 6.69748 16.9652C14.4334 16.9652 18.6664 10.5564 18.6664 4.99377C18.6664 4.81122 18.6664 4.62868 18.6541 4.44613C19.4731 3.8467 20.1909 3.10419 20.7632 2.27041Z" fill="#363853"/>
</svg>
